<?xml version="1.0" encoding="UTF-8" standalone="no" ?>
<!DOCTYPE svg PUBLIC "-//W3C//DTD SVG 1.1//EN" "http://www.w3.org/Graphics/SVG/1.1/DTD/svg11.dtd">
<svg xmlns="http://www.w3.org/2000/svg" xmlns:xlink="http://www.w3.org/1999/xlink" version="1.1" width="1280" height="1024" viewBox="0 0 1280 1024" xml:space="preserve">
<desc>Created with Fabric.js 5.3.0</desc>
<defs>
</defs>
<g transform="matrix(1 0 0 1 640 512)" id="background-logo"  >
<rect style="stroke: none; stroke-width: 0; stroke-dasharray: none; stroke-linecap: butt; stroke-dashoffset: 0; stroke-linejoin: miter; stroke-miterlimit: 4; fill: rgb(25,40,51); fill-rule: nonzero; opacity: 1;"  paint-order="stroke"  x="-640" y="-512" rx="0" ry="0" width="1280" height="1024" />
</g>
<g transform="matrix(1.9211538461538462 0 0 1.9211538461538462 640 396.52245067044026)" id="logo-logo"  >
<g style=""  paint-order="stroke"   >
		<g transform="matrix(0.20987560121275298 0 0 0.20987560121275298 0 -2.842171e-14)"  >
<radialGradient id="SVGID_1_1127214" gradientUnits="userSpaceOnUse" gradientTransform="matrix(1 0 0 -1 0 1497.8898)"  cx="734.236" cy="747.8897" r="353.1409" fx="734.236" fy="747.8897">
<stop offset="0%" style="stop-color:rgb(47,227,227);stop-opacity: 1"/>
<stop offset="100%" style="stop-color:rgb(26,101,181);stop-opacity: 1"/>
</radialGradient>
<path style="stroke: none; stroke-width: 1; stroke-dasharray: none; stroke-linecap: butt; stroke-dashoffset: 0; stroke-linejoin: miter; stroke-miterlimit: 4; fill: url(#SVGID_1_1127214); fill-rule: nonzero; opacity: 1;"  paint-order="stroke"  transform=" translate(-734.2360785699764, -750)" d="M 1045.1 885.8 C 1043.1 884.5999999999999 1040.8999999999999 883.6999999999999 1038.8 882.9 L 1038.8 617 C 1053.5 611.8 1064 597.8 1064 581.4 C 1064 560.6 1047 543.6 1026.2 543.6 C 1016.9000000000001 543.6 1008.3000000000001 547.1 1001.7 552.7 L 771.4000000000001 419.70000000000005 C 771.8000000000001 417.40000000000003 772.0000000000001 415.20000000000005 772.0000000000001 412.80000000000007 C 772.0000000000001 391.9000000000001 755.0000000000001 375.00000000000006 734.2000000000002 375.00000000000006 C 713.3000000000002 375.00000000000006 696.4000000000002 392.00000000000006 696.4000000000002 412.80000000000007 C 696.4000000000002 415.1000000000001 696.6000000000003 417.4000000000001 697.0000000000002 419.70000000000005 L 466.7000000000002 552.7 C 460.1000000000002 547 451.5000000000002 543.6 442.2000000000002 543.6 C 421.30000000000024 543.6 404.4000000000002 560.6 404.4000000000002 581.4 C 404.4000000000002 597.9 414.9000000000002 611.9 429.6000000000002 617 L 429.6000000000002 882.9 C 427.50000000000017 883.6999999999999 425.3000000000002 884.6 423.3000000000002 885.8 C 405.3000000000002 896.3 399.00000000000017 919.4 409.50000000000017 937.5 C 416.50000000000017 949.6 429.20000000000016 956.4 442.3000000000002 956.4 C 448.70000000000016 956.4 455.20000000000016 954.8 461.20000000000016 951.3 C 463.20000000000016 950.0999999999999 465.20000000000016 948.8 466.90000000000015 947.3 L 697.0000000000001 1080.3 C 696.6000000000001 1082.6 696.4000000000001 1084.8 696.4000000000001 1087.2 C 696.4000000000001 1108.1000000000001 713.4000000000001 1125 734.2 1125 C 755.1 1125 772 1108 772 1087.2 C 772 1084.9 771.8 1082.6000000000001 771.4 1080.3 L 1001.5999999999999 947.4 C 1003.3 948.9 1005.1999999999999 950.1999999999999 1007.3 951.4 C 1013.1999999999999 954.9 1019.6999999999999 956.5 1026.2 956.5 C 1039.3 956.5 1052.1000000000001 949.7 1059.1000000000001 937.6 C 1069.4 919.4 1063.2 896.3 1045.1 885.8 z M 1033.3 571 C 1036.6 573.3 1038.8 577.1 1038.8 581.4 C 1038.8 586.1 1036.3 590.1999999999999 1032.5 592.3 C 1030.7 593.4 1028.5 594 1026.2 594 C 1019.3000000000001 594 1013.6 588.4 1013.6 581.4 C 1013.6 577 1015.8000000000001 573.1999999999999 1019.1 570.9 C 1019.4 570.8 1019.6 570.6 1019.9 570.5 C 1021.6999999999999 569.4 1023.9 568.8 1026.2 568.8 C 1028.3 568.8 1030.2 569.3 1031.9 570.1999999999999 C 1032.4 570.4 1032.9 570.7 1033.3 571 z M 728.3 401.7 C 730.0999999999999 400.8 732 400.2 734.1999999999999 400.2 C 736.3999999999999 400.2 738.4999999999999 400.8 740.3 401.8 C 742 402.7 743.5 404 744.5999999999999 405.6 C 744.6999999999999 405.70000000000005 744.6999999999999 405.70000000000005 744.6999999999999 405.8 C 746.0999999999999 407.8 746.8 410.3 746.8 412.90000000000003 C 746.8 415.6 746 418.1 744.5 420.20000000000005 C 744.3 420.50000000000006 744.1 420.70000000000005 743.9 421.00000000000006 C 741.6 423.80000000000007 738 425.6000000000001 734.1 425.6000000000001 C 729.9 425.6000000000001 726.1 423.50000000000006 723.8000000000001 420.2000000000001 C 722.3000000000001 418.1000000000001 721.5000000000001 415.7000000000001 721.5000000000001 412.9000000000001 C 721.5000000000001 410.30000000000007 722.3000000000001 407.9000000000001 723.6000000000001 405.80000000000007 C 723.7000000000002 405.70000000000005 723.7000000000002 405.70000000000005 723.7000000000002 405.6000000000001 C 724.6000000000001 404.30000000000007 725.7000000000002 403.30000000000007 726.9000000000002 402.4000000000001 C 727.4 402.2 727.9 401.9 728.3 401.7 z M 691.2 452.1 L 634 533.8 C 630.8 532.9 627.4 532.4 623.9 532.4 C 603 532.4 586.1 549.4 586.1 570.1999999999999 C 586.1 591.0999999999999 603.1 607.9999999999999 623.9 607.9999999999999 C 644.8 607.9999999999999 661.6999999999999 590.9999999999999 661.6999999999999 570.1999999999999 C 661.6999999999999 561.9999999999999 659.0999999999999 554.4 654.5999999999999 548.3 L 723.9999999999999 449.19999999999993 C 727.1999999999999 450.0999999999999 730.5999999999999 450.5999999999999 734.0999999999999 450.5999999999999 C 737.5999999999999 450.5999999999999 740.9999999999999 450.19999999999993 744.1999999999999 449.19999999999993 L 813.5999999999999 548.3 C 809.0999999999999 554.5 806.4999999999999 562 806.4999999999999 570.1999999999999 C 806.4999999999999 591.0999999999999 823.4999999999999 607.9999999999999 844.2999999999998 607.9999999999999 C 865.0999999999998 607.9999999999999 882.0999999999998 590.9999999999999 882.0999999999998 570.1999999999999 C 882.0999999999998 549.3 865.0999999999998 532.4 844.2999999999998 532.4 C 840.7999999999998 532.4 837.3999999999999 532.9 834.1999999999998 533.8 L 776.8999999999999 452.09999999999997 L 989 574.5 C 988.6 576.8 988.4 579 988.4 581.4 C 988.4 583.8 988.6 586.1 989 588.3 L 758.8 721.2 C 752.1999999999999 715.5 743.5999999999999 712.1 734.1999999999999 712.1 C 724.8 712.1 716.1999999999999 715.5 709.5999999999999 721.2 L 479.4 588.3 C 479.79999999999995 586.0999999999999 480 583.8 480 581.4 C 480 579.1 479.8 576.8 479.4 574.5 L 691.2 452.1 z M 624 557.7 C 630.9 557.7 636.6 563.4000000000001 636.6 570.3000000000001 C 636.6 572.9000000000001 635.8000000000001 575.3000000000001 634.5 577.4000000000001 C 634.4 577.5000000000001 634.4 577.5000000000001 634.4 577.6000000000001 C 632.1 580.8000000000002 628.3 583.0000000000001 624.1 583.0000000000001 C 617.2 583.0000000000001 611.5 577.3000000000001 611.5 570.4000000000001 C 611.5 567.7 612.3 565.2 613.8 563.1000000000001 C 615.9 559.8 619.7 557.7 624 557.7 z M 844.5 557.7 C 848.8 557.7 852.6 559.8000000000001 854.8 563.1 C 856.3 565.2 857.0999999999999 567.6 857.0999999999999 570.3000000000001 C 857.0999999999999 577.2 851.3999999999999 582.9000000000001 844.4999999999999 582.9000000000001 C 840.1999999999999 582.9000000000001 836.3999999999999 580.8000000000001 834.1999999999999 577.5000000000001 C 834.0999999999999 577.4000000000001 834.0999999999999 577.4000000000001 834.0999999999999 577.3000000000001 C 832.6999999999999 575.3000000000001 831.9999999999999 572.8000000000001 831.9999999999999 570.2 C 831.9 563.4 837.5 557.7 844.5 557.7 z M 740 761.2 C 738.2 762.1 736.3 762.7 734.1 762.7 C 732 762.7 729.9 762.1 728.1 761.2 C 727.7 761 727.4 760.8000000000001 727 760.6 C 723.7 758.3000000000001 721.5 754.5 721.5 750.1 C 721.5 743.2 727.2 737.5 734.1 737.5 C 741.1 737.5 746.7 743.2 746.7 750.1 C 746.7 754.5 744.5 758.3000000000001 741.2 760.6 C 740.9 760.7 740.4 761 740 761.2 z M 435 571 C 435.4 570.7 435.9 570.4 436.4 570.2 C 438.09999999999997 569.3000000000001 440.09999999999997 568.8000000000001 442.09999999999997 568.8000000000001 C 444.4 568.8000000000001 446.59999999999997 569.4000000000001 448.4 570.5000000000001 C 448.7 570.6000000000001 448.9 570.8000000000001 449.2 570.9000000000001 C 452.5 573.2 454.7 577.0000000000001 454.7 581.4000000000001 C 454.7 588.4000000000001 449 594.0000000000001 442.09999999999997 594.0000000000001 C 439.79999999999995 594.0000000000001 437.59999999999997 593.4000000000001 435.79999999999995 592.3000000000001 C 431.99999999999994 590.2 429.49999999999994 586.1 429.49999999999994 581.4000000000001 C 429.5 577.1 431.8 573.3 435 571 z M 435.9 929.5 C 434.09999999999997 928.4 432.4 926.9 431.29999999999995 924.9 C 430.19999999999993 922.9 429.59999999999997 920.6999999999999 429.59999999999997 918.6 C 429.59999999999997 916.8000000000001 429.99999999999994 914.9 430.9 913.2 C 431.9 910.9000000000001 433.59999999999997 909 435.9 907.7 C 437.9 906.6 440.09999999999997 906 442.2 906 C 442.59999999999997 906 443 906 443.3 906.1 C 443.5 906.1 443.6 906.1 443.8 906.2 C 447.5 906.6 451.1 908.8000000000001 453.1 912.4000000000001 C 455.20000000000005 916.1000000000001 455.3 920.4000000000001 453.6 924.0000000000001 C 452.6 926.3000000000001 450.8 928.3000000000001 448.5 929.6000000000001 C 446.5 930.7000000000002 444.3 931.3000000000002 442.1 931.3000000000002 C 441.8 931.3000000000002 441.40000000000003 931.2000000000002 441.1 931.2000000000002 C 439.3 931.1000000000001 437.6 930.5000000000001 436.1 929.6000000000001 C 436 929.6 435.9 929.5 435.9 929.5 z M 497.7 936.1 L 597.1 944.8000000000001 C 597.9 948.0000000000001 599.2 951.2 600.9 954.2 C 607.9 966.4000000000001 620.6999999999999 973.1 633.8 973.1 C 640.1999999999999 973.1 646.6999999999999 971.5 652.6999999999999 968.1 C 670.8 957.6 676.9999999999999 934.5 666.5999999999999 916.4 C 656.0999999999999 898.4 632.8999999999999 892.1 614.8999999999999 902.6 C 607.7999999999998 906.7 602.4999999999999 912.8000000000001 599.4999999999999 919.7 L 479 909.2 C 478.2 906 476.9 902.8000000000001 475.2 899.7 C 473.4 896.7 471.4 894 469 891.6 L 519.8 782 C 521.0999999999999 782.1 522.3 782.2 523.5 782.2 C 529.9 782.2 536.4 780.6 542.4 777.2 C 560.4 766.7 566.6999999999999 743.6 556.1999999999999 725.5 C 545.8 707.5 522.5999999999999 701.2 504.5999999999999 711.7 C 486.4999999999999 722.1 480.2999999999999 745.3000000000001 490.69999999999993 763.3000000000001 C 492.49999999999994 766.3000000000001 494.5999999999999 769.0000000000001 496.8999999999999 771.4000000000001 L 454.7999999999999 861.8000000000001 L 454.7999999999999 617 C 459.1999999999999 615.5 463.1999999999999 613.1 466.6999999999999 610.1 L 696.9999999999999 743.1 C 696.5999999999999 745.3000000000001 696.3999999999999 747.6 696.3999999999999 750 C 696.3999999999999 766.5 706.8999999999999 780.5 721.5999999999999 785.6 L 721.5999999999999 1051.5 C 717.1999999999999 1053 713.0999999999999 1055.4 709.5999999999999 1058.4 L 497.7 936.1 z M 622.8 941.6 C 619.3 935.6 621.4 927.9 627.4 924.4 C 629.4 923.3 631.6 922.6999999999999 633.6999999999999 922.6999999999999 C 634.0999999999999 922.6999999999999 634.4 922.6999999999999 634.8 922.8 C 638.8 923.0999999999999 642.5 925.3 644.5999999999999 929 C 648.0999999999999 935.1 646.0999999999999 942.8 639.9999999999999 946.3 C 637.6999999999999 947.5999999999999 635.0999999999999 948.0999999999999 632.5999999999999 947.9 C 632.3999999999999 947.9 632.3 947.9 632.0999999999999 947.8 C 628.3 947.4 624.8 945.2 622.8 941.6 z M 512 739.1 C 513 736.8000000000001 514.8 734.8000000000001 517.1 733.5 C 519.1 732.4 521.2 731.8 523.3000000000001 731.8 C 527.7 731.8 531.9000000000001 734.0999999999999 534.3000000000001 738.0999999999999 C 536.4000000000001 741.8 536.4000000000001 746.1999999999999 534.8000000000001 749.8 C 534.7 750.0999999999999 534.5000000000001 750.4 534.4000000000001 750.6999999999999 C 533.3000000000001 752.5999999999999 531.8000000000001 754.1999999999999 529.7 755.4 C 523.6 758.9 516 756.9 512.5 750.8 C 510.4 747 510.3 742.7 512 739.1 z M 734.2 1099.8 C 727.3000000000001 1099.8 721.7 1094.3 721.6 1087.3 L 721.6 1087.2 C 721.6 1080.3 727.3000000000001 1074.6000000000001 734.2 1074.6000000000001 C 741.2 1074.6000000000001 746.8000000000001 1080.3000000000002 746.8000000000001 1087.2 L 746.8000000000001 1087.3 C 746.8000000000001 1092.1 744.2 1096.2 740.2 1098.3 C 738.5 1099.2 736.4 1099.8 734.2 1099.8 z M 758.8 1058.5 C 755.3 1055.5 751.1999999999999 1053.1 746.8 1051.6 L 746.8 785.5999999999999 C 761.5 780.4999999999999 772 766.3999999999999 772 749.9999999999999 C 772 747.6999999999999 771.8 745.2999999999998 771.4 743.0999999999999 L 1001.7 610.0999999999999 C 1005.2 613.0999999999999 1009.2 615.4999999999999 1013.6 616.9999999999999 L 1013.6 861.6999999999998 L 971.5 771.2999999999998 C 973.8 768.9999999999999 976 766.2999999999998 977.7 763.1999999999998 C 988.2 745.1999999999998 981.9000000000001 721.9999999999998 963.9000000000001 711.5999999999998 C 945.8000000000001 701.0999999999998 922.7 707.3999999999997 912.2 725.3999999999997 C 901.8000000000001 743.4999999999998 908 766.5999999999998 926.1 777.0999999999998 C 932 780.4999999999998 938.5 782.0999999999998 945 782.0999999999998 C 946.3 782.0999999999998 947.5 781.9999999999998 948.7 781.8999999999997 L 999.8000000000001 891.4999999999998 C 997.4000000000001 893.7999999999997 995.3000000000001 896.4999999999998 993.6 899.5999999999998 C 991.8000000000001 902.5999999999998 990.5 905.7999999999998 989.7 909.0999999999998 L 869.3000000000001 919.5999999999998 C 866.1 912.6999999999998 860.9000000000001 906.5999999999998 853.8000000000001 902.4999999999998 C 835.8000000000001 891.9999999999998 812.6 898.2999999999997 802.2 916.2999999999997 C 791.7 934.3999999999997 798 957.4999999999998 816 967.9999999999998 C 822 971.4999999999998 828.5 972.9999999999998 834.9 972.9999999999998 C 848 972.9999999999998 860.8 966.2999999999997 867.8 954.0999999999998 C 869.5 951.0999999999998 870.8 947.8999999999997 871.5999999999999 944.6999999999998 L 971 936 L 758.8 1058.5 z M 938.7 755.3 C 936.7 754.1999999999999 935.1 752.5 934 750.5999999999999 C 933.9 750.3 933.7 749.9999999999999 933.6 749.6999999999999 C 931.9 746.0999999999999 931.9 741.8 934.1 737.9999999999999 C 936.4 733.9999999999999 940.7 731.6999999999999 945 731.6999999999999 C 947.1 731.6999999999999 949.3 732.3 951.3 733.4 C 953.5999999999999 734.6999999999999 955.3 736.6999999999999 956.4 739 C 956.5 739.2 956.6 739.4 956.6999999999999 739.6 C 958.0999999999999 743.1 957.9999999999999 747.2 955.9 750.6 C 952.4 756.7 944.7 758.8 938.7 755.3 z M 834.8 922.7 C 836.9 922.7 839.0999999999999 923.3000000000001 841 924.4000000000001 C 847.1 927.9000000000001 849.1 935.6000000000001 845.7 941.6000000000001 C 843.6 945.2000000000002 840.1 947.4000000000001 836.4000000000001 947.8000000000002 C 836.2 947.9000000000002 836.0000000000001 947.9000000000002 835.9000000000001 947.9000000000002 C 833.4000000000001 948.1000000000003 830.9000000000001 947.6000000000003 828.5000000000001 946.3000000000002 C 822.4000000000001 942.8000000000002 820.4000000000001 935.1000000000001 823.8000000000001 929.0000000000002 C 825.9000000000001 925.3000000000002 829.7 923.1000000000003 833.6 922.8000000000002 C 834 922.7 834.4 922.7 834.8 922.7 z M 1037.1 924.9 C 1036 926.9 1034.3 928.4 1032.5 929.5 C 1032.4 929.5 1032.4 929.6 1032.3 929.6 C 1030.8 930.5 1029.1 931 1027.3 931.2 C 1024.8 931.5 1022.1999999999999 930.9000000000001 1019.9 929.6 C 1017.6 928.3000000000001 1015.9 926.3000000000001 1014.8 924 C 1014.6999999999999 923.8 1014.5999999999999 923.6 1014.5 923.4 C 1013.1 919.9 1013.2 915.8 1015.3 912.4 C 1017.3 908.9 1020.8 906.6999999999999 1024.6 906.1999999999999 C 1024.8 906.0999999999999 1025 906.0999999999999 1025.1999999999998 906.0999999999999 C 1025.6 905.9999999999999 1025.8999999999999 905.9999999999999 1026.2999999999997 905.9999999999999 C 1028.3999999999996 905.9999999999999 1030.6999999999998 906.5999999999999 1032.5999999999997 907.6999999999999 C 1034.8999999999996 908.9999999999999 1036.5999999999997 910.9999999999999 1037.5999999999997 913.1999999999999 C 1038.3999999999996 914.9 1038.8999999999996 916.6999999999999 1038.8999999999996 918.5999999999999 C 1038.8 920.8 1038.2 922.9 1037.1 924.9 z" stroke-linecap="round" />
</g>
</g>
</g>
<g transform="matrix(1.9211538461538462 0 0 1.9211538461538462 642.5455288461537 645.1595259248766)" id="text-logo"  >
<g style=""  paint-order="stroke"   >
		<g transform="matrix(1 0 0 1 0 0)" id="text-logo-path-0"  >
<path style="stroke: none; stroke-width: 0; stroke-dasharray: none; stroke-linecap: butt; stroke-dashoffset: 0; stroke-linejoin: miter; stroke-miterlimit: 4; fill: rgb(36,166,190); fill-rule: nonzero; opacity: 1;"  paint-order="stroke"  transform=" translate(-305.075, 17.5)" d="M 20.2 0.5 C 25.05 0.5 29.5 -1.45 32.75 -4.65 L 32.75 0 L 36.75 0 L 36.75 -17.25 L 20.75 -17.25 L 20.75 -13.5 L 32.75 -13.5 L 32.75 -10.9 C 30.5 -6.4 25.85 -3.25 20.2 -3.25 C 12.05 -3.25 6.2 -9.1 6.2 -17.5 C 6.2 -25.9 12.05 -31.75 20.2 -31.75 C 24.7 -31.75 28.5 -29.95 31 -26.95 L 33.95 -29.1 C 30.65 -33 25.7 -35.5 20.2 -35.5 C 10.3 -35.5 2.2 -27.4 2.2 -17.5 C 2.2 -7.6 10.3 0.5 20.2 0.5 Z M 48.1 -35 L 48.1 0 L 72.6 0 L 72.6 -3.75 L 52.1 -3.75 L 52.1 -15.65 L 67.6 -15.65 L 67.6 -19.4 L 52.1 -19.4 L 52.1 -31.25 L 72.6 -31.25 L 72.6 -35 Z M 101.95 -3.25 C 93.8 -3.25 87.95 -9.1 87.95 -17.5 C 87.95 -25.9 93.8 -31.75 101.95 -31.75 C 110.1 -31.75 115.95 -25.9 115.95 -17.5 C 115.95 -9.1 110.1 -3.25 101.95 -3.25 Z M 83.95 -17.5 C 83.95 -7.6 92.05 0.5 101.95 0.5 C 111.85 0.5 119.95 -7.6 119.95 -17.5 C 119.95 -27.4 111.85 -35.5 101.95 -35.5 C 92.05 -35.5 83.95 -27.4 83.95 -17.5 Z M 131.3 0 L 135.3 0 L 135.3 -14.65 L 141.5 -14.65 C 150.3 -14.65 153.25 -8.25 153.25 0 L 157.25 0 C 157.25 -6.2 155.4 -12.3 150.7 -15.7 C 154.05 -17.35 156.4 -20.85 156.4 -24.9 C 156.4 -30.4 151.8 -35 146.3 -35 L 131.3 -35 Z M 135.3 -18.4 L 135.3 -31.25 L 146.05 -31.25 C 149.55 -31.25 152.45 -28.35 152.45 -24.85 C 152.45 -21.3 149.55 -18.4 146.05 -18.4 Z M 186.6 0.5 C 191.45 0.5 195.9 -1.45 199.15 -4.65 L 199.15 0 L 203.15 0 L 203.15 -17.25 L 187.15 -17.25 L 187.15 -13.5 L 199.15 -13.5 L 199.15 -10.9 C 196.9 -6.4 192.25 -3.25 186.6 -3.25 C 178.45 -3.25 172.6 -9.1 172.6 -17.5 C 172.6 -25.9 178.45 -31.75 186.6 -31.75 C 191.1 -31.75 194.9 -29.95 197.4 -26.95 L 200.35 -29.1 C 197.05 -33 192.1 -35.5 186.6 -35.5 C 176.7 -35.5 168.6 -27.4 168.6 -17.5 C 168.6 -7.6 176.7 0.5 186.6 0.5 Z M 214.5 -35 L 214.5 0 L 239 0 L 239 -3.75 L 218.5 -3.75 L 218.5 -15.65 L 234 -15.65 L 234 -19.4 L 218.5 -19.4 L 218.5 -31.25 L 239 -31.25 L 239 -35 Z M 267.3 -35 L 267.3 0 L 271.3 0 L 271.3 -15.65 L 292.3 -15.65 L 292.3 0 L 296.3 0 L 296.3 -35 L 292.3 -35 L 292.3 -19.4 L 271.3 -19.4 L 271.3 -35 Z M 307.65 -35 L 307.65 0 L 332.15 0 L 332.15 -3.75 L 311.65 -3.75 L 311.65 -15.65 L 327.15 -15.65 L 327.15 -19.4 L 311.65 -19.4 L 311.65 -31.25 L 332.15 -31.25 L 332.15 -35 Z M 343.5 0 L 347.5 0 L 347.5 -14.65 L 353.7 -14.65 C 362.5 -14.65 365.45 -8.25 365.45 0 L 369.45 0 C 369.45 -6.2 367.6 -12.3 362.9 -15.7 C 366.25 -17.35 368.6 -20.85 368.6 -24.9 C 368.6 -30.4 364 -35 358.5 -35 L 343.5 -35 Z M 347.5 -18.4 L 347.5 -31.25 L 358.25 -31.25 C 361.75 -31.25 364.65 -28.35 364.65 -24.85 C 364.65 -21.3 361.75 -18.4 358.25 -18.4 Z M 380.8 -35 L 380.8 0 L 384.8 0 L 384.8 -30.95 L 403.8 0 L 409.8 0 L 409.8 -35 L 405.8 -35 L 405.8 -4.05 L 386.8 -35 Z M 435.15 -35 L 421.15 0 L 425.35 0 L 428.8 -8.65 L 446.9 -8.65 L 450.35 0 L 454.55 0 L 440.55 -35 Z M 430.3 -12.4 L 437.85 -31.25 L 445.4 -12.4 Z M 465.9 -35 L 465.9 0 L 469.9 0 L 469.9 -30.95 L 488.9 0 L 494.9 0 L 494.9 -35 L 490.9 -35 L 490.9 -4.05 L 471.9 -35 Z M 506.25 -35 L 506.25 0 L 516.75 0 C 526.65 0 534.75 -7.6 534.75 -17.5 C 534.75 -27.4 526.65 -35 516.75 -35 Z M 510.25 -3.75 L 510.25 -31.25 L 516.75 -31.25 C 524.9 -31.25 530.75 -25.9 530.75 -17.5 C 530.75 -9.1 524.9 -3.75 516.75 -3.75 Z M 546.1 -35 L 546.1 0 L 570.6 0 L 570.6 -3.75 L 550.1 -3.75 L 550.1 -15.65 L 565.6 -15.65 L 565.6 -19.4 L 550.1 -19.4 L 550.1 -31.25 L 570.6 -31.25 L 570.6 -35 Z M 581.95 -3.75 L 581.95 0 L 607.95 0 L 607.95 -3.75 L 586.95 -3.75 L 607.95 -31.25 L 607.95 -35 L 581.95 -35 L 581.95 -31.25 L 602.95 -31.25 Z" stroke-linecap="round" />
</g>
</g>
</g>
</svg>